# xmcd
#
# Track frame offsets:
#	150
#	18443
#	36115
#	54982
#	80407
#	101272
#	116619
#	134573
#	151534
#	170657
#	189776
#	207407
#	227235
#	242492
#	257837
#	270673
#
# Disc length: 3805 seconds
#
# Revision: 1
# Processed by: cddbd v1.5.2PL0 Copyright (c) Steve Scherf et al.
# Submitted via: audiograbber 1.83.01
#
DISCID=cb0edb10
DTITLE="Ван-Гог" - За єдину Україну
DYEAR=2012
DGENRE=Folk
TTITLE0=Єдина моя Україна"Ірина Шевчук та Петро Мрежу"
TTITLE1=Зелен-клен"Оксана Пекун"
TTITLE2=Відлітаю прощай"Оксана Пекун"
TTITLE3=Не відлітай"Ван-Гог"
TTITLE4=Контрасти"Ван-Гог"
TTITLE5=Вітер"Лілія Білоус"
TTITLE6=Не болить"Лілія Білоус"
TTITLE7=Шала-лейла"Петро Чорний"
TTITLE8=Юнак"Лілія Білоус"
TTITLE9=Два кольори"Дует'Ліза і Олександр'"
TTITLE10=Ти забудеш"Дует'Ліза і Олександр'"
TTITLE11=Мало"Левко"
TTITLE12=Ноу проблем"Левко"
TTITLE13=Ой чий то кінь стоїть"Краяни"
TTITLE14=Берегиня"Краяни"
TTITLE15=Єдина Україна-учасники акції-
EXTD=Слава Україні!
EXTT0=
EXTT1=
EXTT2=
EXTT3=
EXTT4=
EXTT5=
EXTT6=
EXTT7=
EXTT8=
EXTT9=
EXTT10=
EXTT11=
EXTT12=
EXTT13=
EXTT14=
EXTT15=
PLAYORDER=
